<svg width="16" height="16" fill="none" xmlns="http://www.w3.org/2000/svg"><path d="M2.45 1.28c-.908.104-1.569.673-1.79 1.539l-.06.234v3.934c0 3.74.002 3.943.05 4.146.094.407.247.695.519.98.265.278.575.455.978.559.198.051.323.057 1.786.076 1.77.022 1.788.024 2.174.218.331.166.578.421.959.994.165.249.35.504.41.567a.742.742 0 0 0 1.048 0 6.48 6.48 0 0 0 .41-.567c.381-.573.628-.828.959-.994.386-.194.404-.196 2.174-.218 1.491-.02 1.585-.024 1.8-.079a2.012 2.012 0 0 0 1.473-1.488l.06-.234V3.053l-.06-.234a2.02 2.02 0 0 0-1.051-1.33c-.447-.221-.716-.246-2.449-.227-1.415.016-1.69.035-2.146.153a3.317 3.317 0 0 0-1.558.951L8 2.52l-.136-.154a3.317 3.317 0 0 0-1.558-.951c-.47-.121-.719-.138-2.226-.148a34.277 34.277 0 0 0-1.63.013m2.603 1.493c.308.013.65.042.76.065.652.136 1.215.699 1.348 1.349.023.11.053.452.066.76.024.539.038 6.946.015 6.946-.006 0-.075-.042-.153-.094a3.846 3.846 0 0 0-.773-.37c-.437-.147-.553-.156-2.236-.174-1.343-.014-1.573-.023-1.655-.059-.118-.053-.28-.238-.306-.351-.031-.136-.046-6.993-.015-7.402.024-.334.031-.363.103-.452.131-.162.196-.195.423-.217.302-.029 1.767-.03 2.423-.001m8.499.025a.535.535 0 0 1 .205.151c.086.098.11.151.128.273.028.197.028 7.358 0 7.555a.44.44 0 0 1-.118.263c-.175.205-.1.196-1.847.215-1.683.018-1.799.027-2.236.174a3.846 3.846 0 0 0-.773.37 1.404 1.404 0 0 1-.153.094c-.022 0-.009-6.403.015-6.946.013-.308.042-.65.065-.76a1.73 1.73 0 0 1 .468-.854c.411-.412.723-.524 1.561-.561.682-.029 2.566-.012 2.685.026" fill-rule="evenodd" fill="#000"/></svg>