<svg width="20" height="20" fill="none" xmlns="http://www.w3.org/2000/svg"><path d="M.133.133 0 .267V1.414l1.781 1.785 1.781 1.784-.392.355C2.129 6.279.981 7.731.188 9.111L0 9.439v1.14l.205.352a18.973 18.973 0 0 0 1.705 2.416c.415.501 1.457 1.545 1.923 1.925 1.177.959 2.394 1.63 3.652 2.011a7.99 7.99 0 0 0 2.532.36c1.626-.008 3.105-.418 4.624-1.283l.192-.109 1.876 1.874L18.586 20H19.733l.134-.133.133-.134v-1.149l-9.292-9.292L1.416 0H.267L.133.133M9.4 2.355c-.752.072-1.393.187-1.583.283a1.123 1.123 0 0 0-.442.424c-.114.193-.141.555-.061.798.111.332.466.621.815.662.096.012.291-.007.506-.049 1.579-.309 3.081-.089 4.562.667.434.222 1.185.712 1.586 1.037.756.61 1.605 1.505 2.298 2.419.326.432.919 1.332.919 1.398 0 .113-.694 1.14-1.205 1.781-.369.463-.409.549-.408.875 0 .322.051.454.262.679.37.395.982.43 1.369.077.357-.325 1.272-1.609 1.794-2.517l.188-.328v-1.14l-.205-.352a18.893 18.893 0 0 0-1.706-2.416c-.419-.506-1.461-1.549-1.922-1.925-1.531-1.247-3.134-2.01-4.784-2.276-.61-.098-1.511-.142-1.983-.097M6.77 8.601a3.484 3.484 0 0 0 1.418 4.484 3.524 3.524 0 0 0 3.256.133l.239-.115.843.84.843.84-.351.17c-.704.342-1.653.601-2.501.684-1.863.181-3.837-.546-5.584-2.057a14.69 14.69 0 0 1-1.966-2.115C2.605 10.99 2 10.076 2 10.003c0-.063.421-.728.729-1.153a14.872 14.872 0 0 1 1.858-2.1l.39-.356.963.963.962.962-.132.282m2.521 2.107c.445.445.809.82.809.833 0 .045-.309.024-.536-.035a1.493 1.493 0 0 1-1.081-1.095c-.052-.201-.067-.511-.025-.511.014 0 .389.364.833.808" fill-rule="evenodd" fill="#000"/></svg>
