<svg aria-hidden="true" style="position: absolute; width: 0; height: 0; overflow: hidden;" version="1.1" xmlns="http://www.w3.org/2000/svg" xmlns:xlink="http://www.w3.org/1999/xlink">
<defs>
<symbol id="icon-burger" viewBox="0 0 28 28">
<path d="M3.029 6.129a1.175 1.175 0 0 0-.346.307c-.126.18-.14.233-.14.564 0 .331.014.384.14.564.077.109.233.248.347.308l.206.109 10.81-.012 10.811-.012.172-.117c.095-.064.23-.199.3-.299.112-.161.128-.226.128-.545 0-.326-.014-.381-.14-.56a1.175 1.175 0 0 0-.346-.307l-.206-.109H3.235l-.206.109m0 4.666c-.113.06-.269.198-.346.308-.126.179-.14.233-.14.564 0 .33.014.384.14.564.077.109.233.248.347.307l.206.109 8.477-.012 8.477-.012.173-.116c.094-.064.229-.199.299-.3.113-.16.128-.226.128-.544 0-.327-.014-.381-.14-.56a1.179 1.179 0 0 0-.346-.308l-.205-.108H3.235l-.206.108m0 4.667a1.19 1.19 0 0 0-.346.307c-.126.18-.14.234-.14.564 0 .331.014.385.14.564.077.11.233.248.347.308l.206.109 10.81-.012 10.811-.012.172-.117c.095-.064.23-.199.3-.299.112-.161.128-.226.128-.544 0-.327-.014-.381-.14-.561a1.19 1.19 0 0 0-.346-.307l-.206-.109H3.235l-.206.109m0 4.667a1.175 1.175 0 0 0-.346.307c-.126.18-.14.233-.14.564 0 .331.014.384.14.564.077.109.233.248.347.308l.206.109 8.477-.012 8.477-.012.173-.117c.094-.064.229-.199.299-.299.113-.161.128-.226.128-.545 0-.326-.014-.381-.14-.56a1.175 1.175 0 0 0-.346-.307l-.205-.109H3.235l-.206.109"/>
</symbol>
<symbol id="icon-online" viewBox="0 0 32 32">
<path fill="#fff" style="fill: var(--color1, #fff)" d="M32 16c0 8.837-7.163 16-16 16s-16-7.163-16-16c0-8.837 7.163-16 16-16s16 7.163 16 16z"></path>
<path fill="#38cd3e" style="fill: var(--color2, #38cd3e)" d="M26.667 16c0 5.891-4.776 10.667-10.667 10.667s-10.667-4.776-10.667-10.667c0-5.891 4.776-10.667 10.667-10.667s10.667 4.776 10.667 10.667z"></path>
</symbol>
<symbol id="icon-heart-filled" viewBox="0 0 35 32">
<path d="M8.407 2.583c-3.111 0.513-5.578 2.688-6.438 5.679-0.182 0.627-0.287 1.347-0.287 2.092 0 0.032 0 0.063 0.001 0.095l-0-0.005c0 1.635 0.436 3.075 1.351 4.461 0.316 0.48 1.168 1.354 7.389 7.583l7.030 7.040 6.784-6.778c3.729-3.728 6.953-6.988 7.159-7.244 2.012-2.48 2.364-5.894 0.897-8.682-1.103-2.084-3.044-3.599-5.361-4.109l-0.053-0.010c-0.582-0.128-2.070-0.177-2.688-0.089-1.428 0.201-2.699 0.751-3.762 1.562l0.020-0.014c-0.233 0.172-0.935 0.813-1.559 1.424-1.241 1.212-1.337 1.271-1.734 1.081-0.108-0.051-0.444-0.359-0.746-0.684-1.165-1.249-2.31-2.189-3.232-2.653-0.548-0.265-1.188-0.493-1.855-0.65l-0.065-0.013c-0.675-0.15-2.18-0.195-2.851-0.084z"></path>
</symbol>
<symbol id="icon-heart-empty" viewBox="0 0 38 32">
<path d="M10.116 0.355c-1.781 0.204-3.386 0.815-4.766 1.737l0.039-0.025c-0.86 0.572-2.125 1.839-2.689 2.692-2.067 3.12-2.317 6.887-0.675 10.211 0.736 1.492 0.527 1.264 8.592 9.348 4.208 4.217 7.479 7.447 7.612 7.516 0.323 0.169 1.037 0.169 1.361 0.001 0.333-0.173 14.714-14.593 15.155-15.197 1.399-1.913 2.065-3.897 2.065-6.144 0-5.167-3.802-9.425-8.977-10.058-0.826-0.1-2.269-0.039-3.094 0.132-1.945 0.406-3.511 1.231-5.1 2.682l-0.73 0.668-0.794-0.727c-0.915-0.839-1.623-1.343-2.521-1.792-1.246-0.643-2.716-1.028-4.274-1.050l-0.007-0c-0.156-0.006-0.34-0.009-0.524-0.009-0.237 0-0.472 0.005-0.706 0.016l0.033-0.001zM12.121 3.309c1.078 0.161 2.209 0.611 3.069 1.217 0.225 0.159 0.979 0.847 1.673 1.527 1.343 1.316 1.472 1.407 2.047 1.407 0.573 0 0.704-0.090 2.047-1.405 0.735-0.721 1.447-1.36 1.703-1.529 1.367-0.896 2.774-1.295 4.349-1.231 3.735 0.141 6.729 3.126 6.884 6.844l0 0.014c0.076 1.703-0.388 3.261-1.373 4.601-0.269 0.368-2.413 2.556-6.999 7.148l-6.611 6.618-6.64-6.649c-3.652-3.658-6.771-6.823-6.929-7.034-0.865-1.126-1.409-2.54-1.473-4.077l-0-0.014c-0.166-3.591 2.448-6.833 5.967-7.404l0.567-0.095c0.272-0.054 1.177-0.022 1.721 0.061z"></path>
</symbol>
<symbol id="icon-star" viewBox="0 0 32 32">
<path d="M14.72 7.556c-0.686 1.345-1.17 2.226-1.67 3.097l0.214-0.405c-0.321 0.447-0.72 0.815-1.18 1.092l-0.018 0.010c-0.464 0.246-0.874 0.338-3.64 0.81-1.375 0.216-2.269 0.382-3.159 0.562l0.521-0.088c-0.090 0.036 0.182 0.336 1.92 2.12 2.14 2.198 2.314 2.408 2.54 3.112s0.2 1.154-0.238 4.174c-0.214 1.488-0.372 2.706-0.346 2.706 0.024 0 1.19-0.562 2.59-1.248 1.466-0.72 2.692-1.288 2.892-1.342 0.458-0.12 1.25-0.12 1.708 0 0.2 0.054 1.426 0.622 2.892 1.342 1.4 0.686 2.566 1.248 2.59 1.248 0.026 0-0.132-1.218-0.346-2.706-0.438-3.028-0.464-3.484-0.24-4.174 0.23-0.702 0.404-0.916 2.54-3.112 1.718-1.768 2.006-2.086 1.92-2.122-0.351-0.090-1.282-0.262-2.218-0.42l-0.528-0.074c-2.75-0.474-3.148-0.564-3.606-0.83-0.446-0.284-0.82-0.638-1.116-1.052l-0.008-0.012c-0.281-0.457-0.764-1.337-1.232-2.226l-0.222-0.462c-0.63-1.239-1.056-2.019-1.493-2.791l0.213 0.409c-0.014 0-0.59 1.072-1.28 2.382z"></path>
</symbol>
<symbol id="icon-logout" viewBox="0 0 32 32">
<path fill="none" stroke="#f4c550" style="stroke: var(--color1, #f4c550)" stroke-linejoin="round" stroke-linecap="round" stroke-miterlimit="4" stroke-width="3.2" d="M20 4h1.6c2.24 0 3.36 0 4.216 0.436 0.753 0.383 1.364 0.995 1.748 1.748 0.436 0.856 0.436 1.976 0.436 4.216v11.2c0 2.24 0 3.36-0.436 4.216-0.384 0.753-0.995 1.364-1.748 1.748-0.856 0.436-1.976 0.436-4.216 0.436h-1.6"></path>
<path fill="none" stroke="#f4c550" style="stroke: var(--color1, #f4c550)" stroke-linejoin="round" stroke-linecap="round" stroke-miterlimit="4" stroke-width="3.2" d="M13.333 9.333l6.667 6.667M20 16l-6.667 6.667M20 16h-16"></path>
</symbol>
<symbol id="icon-book" viewBox="0 0 32 32">
<path stroke-linejoin="round" stroke-linecap="round" stroke-miterlimit="4" stroke-width="3" d="M29.334 8.266c0-1.492 0-2.24-0.292-2.81-0.26-0.504-0.66-0.905-1.149-1.159l-0.015-0.007c-0.572-0.29-1.318-0.29-2.812-0.29h-0.532c-2.988 0-4.48 0-5.622 0.58-1.004 0.512-1.82 1.328-2.33 2.332-0.582 1.14-0.582 2.634-0.582 5.62v15.468l0.134-0.2c0.926-1.39 1.388-2.084 2-2.586 0.542-0.446 1.166-0.78 1.838-0.984 0.756-0.23 1.592-0.23 3.26-0.23h1.834c1.494 0 2.24 0 2.812-0.29 0.5-0.256 0.908-0.664 1.164-1.166 0.292-0.57 0.292-1.318 0.292-2.81v-11.468zM2.666 8.266c0-1.492 0-2.24 0.292-2.81 0.254-0.5 0.662-0.91 1.164-1.166 0.572-0.29 1.318-0.29 2.812-0.29h0.532c2.988 0 4.48 0 5.62 0.58 1.006 0.512 1.82 1.328 2.332 2.332 0.582 1.14 0.582 2.634 0.582 5.62v15.468l-0.134-0.2c-0.926-1.39-1.388-2.084-2-2.586-0.518-0.429-1.131-0.766-1.8-0.974l-0.038-0.010c-0.758-0.23-1.592-0.23-3.26-0.23h-1.834c-1.494 0-2.24 0-2.812-0.29-0.504-0.261-0.904-0.662-1.157-1.151l-0.007-0.015c-0.292-0.57-0.292-1.318-0.292-2.81v-11.468z"></path>
</symbol>
<symbol id="icon-close" viewBox="0 0 32 32">
<path d="M7.493 6.874c-0.431 0.205-0.723 0.637-0.723 1.137 0 0.189 0.042 0.369 0.117 0.53l-0.003-0.008c0.083 0.184 0.95 1.083 3.718 3.854l3.61 3.613-3.61 3.613c-2.768 2.771-3.635 3.67-3.718 3.854-0.211 0.467-0.11 1.056 0.242 1.407 0.351 0.352 0.94 0.453 1.407 0.242 0.184-0.083 1.083-0.95 3.854-3.718l3.613-3.61 3.613 3.61c2.771 2.768 3.67 3.635 3.854 3.718 0.467 0.211 1.056 0.11 1.407-0.242 0.352-0.351 0.453-0.94 0.242-1.407-0.083-0.184-0.95-1.083-3.718-3.854l-3.61-3.613 3.61-3.613c2.768-2.771 3.635-3.67 3.718-3.854 0.211-0.467 0.11-1.056-0.242-1.407-0.351-0.352-0.94-0.453-1.407-0.242-0.184 0.083-1.083 0.95-3.854 3.718l-3.613 3.61-3.613-3.61c-2.771-2.768-3.67-3.635-3.854-3.718-0.305-0.138-0.753-0.142-1.040-0.010z"></path>
</symbol>
<symbol id="icon-eye" viewBox="0 0 32 32">
<path d="M15.2 3.925c-.102.011-.438.046-.747.075-2.469.24-5.189 1.374-7.512 3.138-1.666 1.262-3.355 2.99-4.73 4.835a31.973 31.973 0 0 0-1.802 2.726l-.085.154-.325.584v1.126l.325.584c.389.704 1.262 2.035 1.877 2.864 1.36 1.834 3.082 3.598 4.706 4.824 2.376 1.794 4.885 2.851 7.52 3.173.685.083 2.459.085 3.146 0 4.214-.512 8.104-2.912 11.554-7.128.816-1 1.968-2.686 2.549-3.733l.325-.584v-1.126l-.325-.584a31.14 31.14 0 0 0-1.833-2.809l.062.089c-3.446-4.71-7.826-7.61-12.277-8.131-.522-.062-2.126-.112-2.427-.077zm1.909 2.905c.866.096 1.654.278 2.406.54l-.076-.023c.784.259 2.117.89 2.802 1.326 1.862 1.186 3.632 2.878 5.234 5.006.422.56 1.152 1.637 1.403 2.067l.147.253-.147.253c-.251.43-.981 1.507-1.403 2.067-1.602 2.128-3.371 3.821-5.234 5.006-.799.489-1.723.936-2.692 1.291l-.11.035c-2.864.946-5.667.726-8.45-.658-1.45-.723-2.386-1.384-3.832-2.71-1.318-1.21-3.107-3.442-4.034-5.032l-.147-.253.147-.253c.403-.693 1.325-2.005 1.939-2.76 2.386-2.934 4.912-4.813 7.658-5.696a10.62 10.62 0 0 1 3.304-.515c.382 0 .759.02 1.131.058l-.047-.004zm-1.973 3.808c-3.074.504-5.075 3.44-4.44 6.515.422 2.043 2.11 3.722 4.187 4.162a6.566 6.566 0 0 0 2.273-.006l-.04.006a5.498 5.498 0 0 0 4.192-4.162l.007-.036a6.566 6.566 0 0 0-.006-2.273l.006.04c-.442-2.08-2.115-3.762-4.168-4.189a6.485 6.485 0 0 0-2.044-.052l.033-.004zm1.533 2.885c.821.213 1.597.989 1.81 1.808.17.658.054 1.462-.285 1.992-.501.779-1.312 1.237-2.194 1.237-.696 0-1.23-.221-1.76-.725a2.505 2.505 0 0 1-.715-2.521l-.004.018c.21-.806.986-1.59 1.786-1.806a3.086 3.086 0 0 1 1.382.002l-.021-.004z"/>
</symbol>
<symbol id="icon-eye-stroke" viewBox="0 0 32 32">
<path d="M.534.154a1.64 1.64 0 0 0-.381.381c-.146.216-.154.259-.154.798 0 .542.008.581.158.805.086.13 1.414 1.493 2.952 3.027l2.794 2.792-1.237 1.235c-1.85 1.846-3.05 3.411-4.286 5.584l-.381.669v1.118l.325.584c.661 1.194 1.834 2.877 2.878 4.133.654.786 2.117 2.269 2.797 2.834 2.688 2.235 5.304 3.464 8.24 3.867a15.58 15.58 0 0 0 3.65-.035l-.077.008a15.823 15.823 0 0 0 4.182-1.211l-.1.04c.606-.274.653-.298 1.403-.73l.445-.254 3.022 3.014c1.662 1.659 3.099 3.054 3.192 3.101.125.062.322.086.726.086.522 0 .568-.01.782-.154a1.64 1.64 0 0 0 .381-.381c.146-.216.154-.259.154-.798 0-.542-.008-.581-.158-.805C31.627 29.54 2.255.192 2.043.084c-.125-.061-.325-.085-.726-.085-.522 0-.568.01-.782.154zM14.773 3.95c-.57.058-1.286.173-1.827.296a1.453 1.453 0 0 0-.968.677l-.004.007c-.12.211-.191.464-.191.733 0 .206.041.402.117.581l-.004-.01c.15.352.509.674.869.779.347.104.454.101 1.062-.024 2.402-.493 4.845-.147 7.184 1.016.456.227 1.008.528 1.229.669 1.862 1.186 3.632 2.878 5.234 5.006.421.56 1.152 1.637 1.402 2.066l.147.253-.122.202a23.772 23.772 0 0 1-1.869 2.694c-.18.217-.354.458-.513.711l-.017.029a1.401 1.401 0 0 0 .218 1.555l-.001-.001a1.399 1.399 0 0 0 1.909.213l-.004.003c.517-.381 2.144-2.666 3.072-4.314l.302-.536v-1.117l-.325-.584a31.14 31.14 0 0 0-1.833-2.809l.062.089c-3.448-4.71-7.819-7.606-12.277-8.133-.691-.082-2.262-.109-2.854-.05zm-3.656 9.562a5.514 5.514 0 0 0-.609 3.162l-.002-.024c.304 2.611 2.25 4.555 4.85 4.842a5.517 5.517 0 0 0 2.978-.542l-.032.014.406-.205 1.446 1.446c.795.797 1.446 1.466 1.446 1.486 0 .11-1.514.766-2.347 1.018-1.195.362-2.104.491-3.413.485-1.424-.008-2.389-.187-3.733-.698-1.718-.651-3.218-1.624-4.95-3.213-1.318-1.208-3.107-3.442-4.032-5.03L2.978 16l.202-.334a23.543 23.543 0 0 1 4.211-5.131l.574-.518 3.274 3.274-.122.221zm5.27 5.109c-.464.106-1.186-.003-1.68-.254-.357-.181-.893-.717-1.074-1.074a2.742 2.742 0 0 1-.264-1.647l-.002.015.034-.205 1.566 1.565c1.498 1.496 1.56 1.568 1.419 1.6z"/>
</symbol>
</defs>
</svg>
