<svg aria-hidden="true" style="position: absolute; width: 0; height: 0; overflow: hidden;" version="1.1" xmlns="http://www.w3.org/2000/svg" xmlns:xlink="http://www.w3.org/1999/xlink">
<defs>
<symbol id="icon-online" viewBox="0 0 32 32">
<path fill="#fff" style="fill: var(--color1, #fff)" d="M32 16c0 8.837-7.163 16-16 16s-16-7.163-16-16c0-8.837 7.163-16 16-16s16 7.163 16 16z"></path>
<path fill="#38cd3e" style="fill: var(--color2, #38cd3e)" d="M26.667 16c0 5.891-4.776 10.667-10.667 10.667s-10.667-4.776-10.667-10.667c0-5.891 4.776-10.667 10.667-10.667s10.667 4.776 10.667 10.667z"></path>
</symbol>
<symbol id="icon-heart-filled" viewBox="0 0 35 32">
<path d="M8.407 2.583c-3.111 0.513-5.578 2.688-6.438 5.679-0.182 0.627-0.287 1.347-0.287 2.092 0 0.032 0 0.063 0.001 0.095l-0-0.005c0 1.635 0.436 3.075 1.351 4.461 0.316 0.48 1.168 1.354 7.389 7.583l7.030 7.040 6.784-6.778c3.729-3.728 6.953-6.988 7.159-7.244 2.012-2.48 2.364-5.894 0.897-8.682-1.103-2.084-3.044-3.599-5.361-4.109l-0.053-0.010c-0.582-0.128-2.070-0.177-2.688-0.089-1.428 0.201-2.699 0.751-3.762 1.562l0.020-0.014c-0.233 0.172-0.935 0.813-1.559 1.424-1.241 1.212-1.337 1.271-1.734 1.081-0.108-0.051-0.444-0.359-0.746-0.684-1.165-1.249-2.31-2.189-3.232-2.653-0.548-0.265-1.188-0.493-1.855-0.65l-0.065-0.013c-0.675-0.15-2.18-0.195-2.851-0.084z"></path>
</symbol>
<symbol id="icon-heart-empty" viewBox="0 0 38 32">
<path d="M10.116 0.355c-1.781 0.204-3.386 0.815-4.766 1.737l0.039-0.025c-0.86 0.572-2.125 1.839-2.689 2.692-2.067 3.12-2.317 6.887-0.675 10.211 0.736 1.492 0.527 1.264 8.592 9.348 4.208 4.217 7.479 7.447 7.612 7.516 0.323 0.169 1.037 0.169 1.361 0.001 0.333-0.173 14.714-14.593 15.155-15.197 1.399-1.913 2.065-3.897 2.065-6.144 0-5.167-3.802-9.425-8.977-10.058-0.826-0.1-2.269-0.039-3.094 0.132-1.945 0.406-3.511 1.231-5.1 2.682l-0.73 0.668-0.794-0.727c-0.915-0.839-1.623-1.343-2.521-1.792-1.246-0.643-2.716-1.028-4.274-1.050l-0.007-0c-0.156-0.006-0.34-0.009-0.524-0.009-0.237 0-0.472 0.005-0.706 0.016l0.033-0.001zM12.121 3.309c1.078 0.161 2.209 0.611 3.069 1.217 0.225 0.159 0.979 0.847 1.673 1.527 1.343 1.316 1.472 1.407 2.047 1.407 0.573 0 0.704-0.090 2.047-1.405 0.735-0.721 1.447-1.36 1.703-1.529 1.367-0.896 2.774-1.295 4.349-1.231 3.735 0.141 6.729 3.126 6.884 6.844l0 0.014c0.076 1.703-0.388 3.261-1.373 4.601-0.269 0.368-2.413 2.556-6.999 7.148l-6.611 6.618-6.64-6.649c-3.652-3.658-6.771-6.823-6.929-7.034-0.865-1.126-1.409-2.54-1.473-4.077l-0-0.014c-0.166-3.591 2.448-6.833 5.967-7.404l0.567-0.095c0.272-0.054 1.177-0.022 1.721 0.061z"></path>
</symbol>
<symbol id="icon-star" viewBox="0 0 32 32">
<path d="M14.72 7.556c-0.686 1.345-1.17 2.226-1.67 3.097l0.214-0.405c-0.321 0.447-0.72 0.815-1.18 1.092l-0.018 0.010c-0.464 0.246-0.874 0.338-3.64 0.81-1.375 0.216-2.269 0.382-3.159 0.562l0.521-0.088c-0.090 0.036 0.182 0.336 1.92 2.12 2.14 2.198 2.314 2.408 2.54 3.112s0.2 1.154-0.238 4.174c-0.214 1.488-0.372 2.706-0.346 2.706 0.024 0 1.19-0.562 2.59-1.248 1.466-0.72 2.692-1.288 2.892-1.342 0.458-0.12 1.25-0.12 1.708 0 0.2 0.054 1.426 0.622 2.892 1.342 1.4 0.686 2.566 1.248 2.59 1.248 0.026 0-0.132-1.218-0.346-2.706-0.438-3.028-0.464-3.484-0.24-4.174 0.23-0.702 0.404-0.916 2.54-3.112 1.718-1.768 2.006-2.086 1.92-2.122-0.351-0.090-1.282-0.262-2.218-0.42l-0.528-0.074c-2.75-0.474-3.148-0.564-3.606-0.83-0.446-0.284-0.82-0.638-1.116-1.052l-0.008-0.012c-0.281-0.457-0.764-1.337-1.232-2.226l-0.222-0.462c-0.63-1.239-1.056-2.019-1.493-2.791l0.213 0.409c-0.014 0-0.59 1.072-1.28 2.382z"></path>
</symbol>
<symbol id="icon-logout" viewBox="0 0 32 32">
<path fill="none" stroke="#f4c550" style="stroke: var(--color1, #f4c550)" stroke-linejoin="round" stroke-linecap="round" stroke-miterlimit="4" stroke-width="3.2" d="M20 4h1.6c2.24 0 3.36 0 4.216 0.436 0.753 0.383 1.364 0.995 1.748 1.748 0.436 0.856 0.436 1.976 0.436 4.216v11.2c0 2.24 0 3.36-0.436 4.216-0.384 0.753-0.995 1.364-1.748 1.748-0.856 0.436-1.976 0.436-4.216 0.436h-1.6"></path>
<path fill="none" stroke="#f4c550" style="stroke: var(--color1, #f4c550)" stroke-linejoin="round" stroke-linecap="round" stroke-miterlimit="4" stroke-width="3.2" d="M13.333 9.333l6.667 6.667M20 16l-6.667 6.667M20 16h-16"></path>
</symbol>
<symbol id="icon-book" viewBox="0 0 32 32">
<path stroke-linejoin="round" stroke-linecap="round" stroke-miterlimit="4" stroke-width="3" d="M29.334 8.266c0-1.492 0-2.24-0.292-2.81-0.26-0.504-0.66-0.905-1.149-1.159l-0.015-0.007c-0.572-0.29-1.318-0.29-2.812-0.29h-0.532c-2.988 0-4.48 0-5.622 0.58-1.004 0.512-1.82 1.328-2.33 2.332-0.582 1.14-0.582 2.634-0.582 5.62v15.468l0.134-0.2c0.926-1.39 1.388-2.084 2-2.586 0.542-0.446 1.166-0.78 1.838-0.984 0.756-0.23 1.592-0.23 3.26-0.23h1.834c1.494 0 2.24 0 2.812-0.29 0.5-0.256 0.908-0.664 1.164-1.166 0.292-0.57 0.292-1.318 0.292-2.81v-11.468zM2.666 8.266c0-1.492 0-2.24 0.292-2.81 0.254-0.5 0.662-0.91 1.164-1.166 0.572-0.29 1.318-0.29 2.812-0.29h0.532c2.988 0 4.48 0 5.62 0.58 1.006 0.512 1.82 1.328 2.332 2.332 0.582 1.14 0.582 2.634 0.582 5.62v15.468l-0.134-0.2c-0.926-1.39-1.388-2.084-2-2.586-0.518-0.429-1.131-0.766-1.8-0.974l-0.038-0.010c-0.758-0.23-1.592-0.23-3.26-0.23h-1.834c-1.494 0-2.24 0-2.812-0.29-0.504-0.261-0.904-0.662-1.157-1.151l-0.007-0.015c-0.292-0.57-0.292-1.318-0.292-2.81v-11.468z"></path>
</symbol>
<symbol id="icon-close" viewBox="0 0 32 32">
<path d="M7.493 6.874c-0.431 0.205-0.723 0.637-0.723 1.137 0 0.189 0.042 0.369 0.117 0.53l-0.003-0.008c0.083 0.184 0.95 1.083 3.718 3.854l3.61 3.613-3.61 3.613c-2.768 2.771-3.635 3.67-3.718 3.854-0.211 0.467-0.11 1.056 0.242 1.407 0.351 0.352 0.94 0.453 1.407 0.242 0.184-0.083 1.083-0.95 3.854-3.718l3.613-3.61 3.613 3.61c2.771 2.768 3.67 3.635 3.854 3.718 0.467 0.211 1.056 0.11 1.407-0.242 0.352-0.351 0.453-0.94 0.242-1.407-0.083-0.184-0.95-1.083-3.718-3.854l-3.61-3.613 3.61-3.613c2.768-2.771 3.635-3.67 3.718-3.854 0.211-0.467 0.11-1.056-0.242-1.407-0.351-0.352-0.94-0.453-1.407-0.242-0.184 0.083-1.083 0.95-3.854 3.718l-3.613 3.61-3.613-3.61c-2.771-2.768-3.67-3.635-3.854-3.718-0.305-0.138-0.753-0.142-1.040-0.010z"></path>
</symbol>
<symbol id="icon-eye" viewBox="0 0 32 32">
<path d="M0.213 0.213l-0.213 0.214v1.835l5.699 5.71-0.627 0.568c-1.666 1.506-3.502 3.829-4.771 6.037l-0.301 0.525v1.824l0.328 0.563c0.878 1.465 1.778 2.728 2.767 3.914l-0.039-0.049c0.664 0.802 2.331 2.472 3.077 3.080 1.883 1.534 3.83 2.608 5.843 3.218 1.137 0.367 2.445 0.578 3.802 0.578 0.088 0 0.175-0.001 0.262-0.003l-0.013 0c2.602-0.013 4.968-0.669 7.398-2.053l0.307-0.174 6.005 5.998h1.835l0.214-0.213 0.213-0.214v-1.838l-29.734-29.734h-1.838l-0.214 0.213zM15.040 3.768c-1.203 0.115-2.229 0.299-2.533 0.453-0.296 0.16-0.536 0.39-0.703 0.67l-0.005 0.008c-0.182 0.309-0.226 0.888-0.098 1.277 0.178 0.531 0.746 0.994 1.304 1.059 0.154 0.019 0.466-0.011 0.81-0.078 2.526-0.494 4.93-0.142 7.299 1.067 0.694 0.355 1.896 1.139 2.538 1.659 1.21 0.976 2.568 2.408 3.677 3.87 0.522 0.691 1.47 2.131 1.47 2.237 0 0.181-1.11 1.824-1.928 2.85-0.59 0.741-0.654 0.878-0.653 1.4 0 0.515 0.082 0.726 0.419 1.086 0.592 0.632 1.571 0.688 2.19 0.123 0.571-0.52 2.035-2.574 2.87-4.027l0.301-0.525v-1.824l-0.328-0.563c-0.878-1.465-1.779-2.728-2.769-3.914l0.039 0.048c-0.67-0.81-2.338-2.478-3.075-3.080-2.45-1.995-5.014-3.216-7.654-3.642-0.976-0.157-2.418-0.227-3.173-0.155zM10.832 13.762c-0.327 0.688-0.518 1.495-0.518 2.347 0 2.052 1.109 3.846 2.761 4.813l0.026 0.014c0.806 0.471 1.775 0.749 2.809 0.749 0.872 0 1.698-0.198 2.435-0.551l-0.034 0.015 0.382-0.184 2.698 2.688-0.562 0.272c-1.126 0.547-2.645 0.962-4.002 1.094-2.981 0.29-6.139-0.874-8.934-3.291-1.153-1.022-2.185-2.129-3.104-3.328l-0.041-0.056c-0.579-0.76-1.547-2.222-1.547-2.339 0-0.101 0.674-1.165 1.166-1.845 0.916-1.248 1.891-2.347 2.96-3.348l0.013-0.012 0.624-0.57 3.080 3.080-0.211 0.451zM14.866 17.133c0.712 0.712 1.294 1.312 1.294 1.333 0 0.072-0.494 0.038-0.858-0.056-0.857-0.224-1.516-0.891-1.726-1.736l-0.003-0.016c-0.083-0.322-0.107-0.818-0.040-0.818 0.022 0 0.622 0.582 1.333 1.293z"></path>
</symbol>
</defs>
</svg>
